<svg width="10" height="10" viewBox="0 0 10 10" fill="none" xmlns="http://www.w3.org/2000/svg">
<path d="M5 5C5.75776 5 6.48449 4.73661 7.02031 4.26777C7.55612 3.79893 7.85714 3.16304 7.85714 2.5C7.85714 1.83696 7.55612 1.20107 7.02031 0.732233C6.48449 0.263392 5.75776 0 5 0C4.24224 0 3.51551 0.263392 2.97969 0.732233C2.44388 1.20107 2.14286 1.83696 2.14286 2.5C2.14286 3.16304 2.44388 3.79893 2.97969 4.26777C3.51551 4.73661 4.24224 5 5 5ZM3.97991 5.9375C1.78125 5.9375 0 7.49609 0 9.41992C0 9.74023 0.296875 10 0.662946 10H9.33705C9.70312 10 10 9.74023 10 9.41992C10 7.49609 8.21875 5.9375 6.02009 5.9375H3.97991Z" fill="#D9D9D9"/>
</svg>
