<svg width="10" height="10" viewBox="0 0 10 10" fill="none" xmlns="http://www.w3.org/2000/svg">
<path d="M6.5625 6.875C8.46094 6.875 10 5.33594 10 3.4375C10 1.53906 8.46094 0 6.5625 0C4.66406 0 3.125 1.53906 3.125 3.4375C3.125 3.80273 3.18164 4.15625 3.28711 4.48633L0.136719 7.63672C0.0488281 7.72461 0 7.84375 0 7.96875V9.53125C0 9.79102 0.208984 10 0.46875 10H2.03125C2.29102 10 2.5 9.79102 2.5 9.53125V8.75H3.28125C3.54102 8.75 3.75 8.54102 3.75 8.28125V7.5H4.53125C4.65625 7.5 4.77539 7.45117 4.86328 7.36328L5.51367 6.71289C5.84375 6.81836 6.19727 6.875 6.5625 6.875ZM7.34375 1.875C7.55095 1.875 7.74966 1.95731 7.89618 2.10382C8.04269 2.25034 8.125 2.44905 8.125 2.65625C8.125 2.86345 8.04269 3.06216 7.89618 3.20868C7.74966 3.35519 7.55095 3.4375 7.34375 3.4375C7.13655 3.4375 6.93784 3.35519 6.79132 3.20868C6.64481 3.06216 6.5625 2.86345 6.5625 2.65625C6.5625 2.44905 6.64481 2.25034 6.79132 2.10382C6.93784 1.95731 7.13655 1.875 7.34375 1.875Z" fill="#D9D9D9"/>
</svg>
